<?xml version="1.0" encoding="UTF-8"?>
<svg id="_レイヤー_2" data-name="レイヤー 2" xmlns="http://www.w3.org/2000/svg" viewBox="0 0 120 120">
  <defs>
    <style>
      .cls-1 {
        fill: #fff;
      }

      .cls-2 {
        opacity: .3;
      }
    </style>
  </defs>
  <g id="_レイヤー_2-2" data-name="レイヤー 2">
    <g id="Dw">
      <g class="cls-2">
        <rect class="cls-1" x="0" width="120" height="120" rx="24" ry="24"/>
      </g>
      <g>
        <path class="cls-1" d="M22.3713733,80.5v-43h14.8124147c3.3437926,0,5.8956344.2053206,7.6555252.6159618,2.4638472.5675648,4.5649613,1.5941678,6.3062756,3.079809,2.2683038,1.9168145,3.9636653,4.3659959,5.0890177,7.3475443,1.1243747,2.9820373,1.6865621,6.3898704,1.6865621,10.2220327,0,3.2660641-.3813097,6.159618-1.1439291,8.6821282s-1.7413142,4.6099363-2.9331514,6.2622783c-1.1928149,1.6528308-2.4980673,2.9527058-3.9157572,3.9010914-1.4186676.9488745-3.1286949,1.6674966-5.133015,2.1558663-2.0052979.4888586-4.3078217.7332879-6.9075716.7332879h-15.5163711ZM27.3713733,75.5h9.2223214c2.8472321,0,5.0825893-.2651786,6.703125-.7955357s2.9120536-1.2767857,3.8745536-2.2392857c1.3553571-1.3553571,2.4111607-3.1772321,3.1674107-5.465625.7552679-2.2879018,1.134375-5.0629464,1.134375-8.3236607,0-4.5178571-.7415179-7.9892411-2.2245536-10.415625-1.4840179-2.4258929-3.2852679-4.0513393-5.4066964-4.8763393-1.5321429-.5892857-3.9973214-.8839286-7.3955357-.8839286h-9.075v33Z"/>
        <path class="cls-1" d="M70.5853122,80.5l-9.4868173-31h5.4293785l4.933145,17.893597,1.8389831,6.6553672c.0768675-.3308223.6129944-2.4617075,1.6054614-6.3926554l4.933145-18.1563089h5.4001883l4.6412429,17.9811676,1.547081,5.9256121,1.7806026-5.9839925,5.3126177-17.9227872h5.1082863l-9.6911488,31h-5.4585687l-4.933145-18.5649718-1.1967985-5.2834275-6.2758945,23.8483992h-5.4877589Z"/>
      </g>
    </g>
  </g>
</svg>