<?xml version="1.0" encoding="UTF-8"?>
<svg id="_レイヤー_2" data-name="レイヤー 2" xmlns="http://www.w3.org/2000/svg" viewBox="0 0 120 120">
  <defs>
    <style>
      .cls-1 {
        fill: #fff;
      }

      .cls-2 {
        opacity: .3;
      }
    </style>
  </defs>
  <g id="_レイヤー_2-2" data-name="レイヤー 2">
    <g id="Pr">
      <g class="cls-2">
        <rect class="cls-1" width="120" height="120" rx="24" ry="24"/>
      </g>
      <g>
        <path class="cls-1" d="M33.6467285,80.5v-43h15.8908046c2.7969349,0,4.9324713.1340996,6.408046.4022989,2.0689655.3448276,3.802682,1.0014368,5.2011494,1.9683908,1.3979885.967433,2.5239464,2.3232759,3.3764368,4.066092.8520115,1.743295,1.2787356,3.6594828,1.2787356,5.7471264,0,3.5823755-1.1398467,6.6139847-3.4195402,9.0948276-2.2801724,2.4813218-6.3984674,3.7212644-12.3563218,3.7212644h-10.3793103v18h-6ZM39.6467285,57.5h10.8492366c3.5877863,0,6.1354962-.6679389,7.6431298-2.0038168,1.5071565-1.3354008,2.2614504-3.2156489,2.2614504-5.639313,0-1.7557252-.4437023-3.2585878-1.3311069-4.5085878-.8874046-1.2495229-2.0567748-2.0753817-3.5066794-2.476145-.9351145-.2476145-2.6622137-.3721374-5.1812977-.3721374h-10.7347328v15Z"/>
        <path class="cls-1" d="M73.6467285,80.5v-31h4v4.7612305c1.7592773-2.2070312,2.8774414-3.6621094,3.902832-4.3652344s2.1533203-1.0546875,3.3837891-1.0546875c1.7768555,0,3.5839844.5668945,5.4199219,1.6992188l-1.8164062,4.8925781c-1.2890625-.7617188-2.578125-1.1425781-3.8671875-1.1425781-1.152832,0-2.1875.347168-3.1054688,1.0400391-.918457.6933594-1.5722656,1.6552734-1.9628906,2.8857422-.5859375,1.875-.9545898,6.1523438-.9545898,6.1523438v16.1313477h-5Z"/>
      </g>
    </g>
  </g>
</svg>