<?xml version="1.0" encoding="UTF-8"?>
<svg id="_レイヤー_2" data-name="レイヤー 2" xmlns="http://www.w3.org/2000/svg" viewBox="0 0 120 120">
  <defs>
    <style>
      .cls-1 {
        fill: #fff;
      }

      .cls-2 {
        opacity: .3;
      }
    </style>
  </defs>
  <g id="_レイヤー_2-2" data-name="レイヤー 2">
    <g id="Ps">
      <g class="cls-2">
        <rect class="cls-1" x="0" width="120" height="120" rx="24" ry="24"/>
      </g>
      <g>
        <path class="cls-1" d="M29.3520508,81.0695801v-43h15.8908046c2.7969349,0,4.9329502.1340996,6.408046.4022989,2.0689655.3448276,3.802682,1.0014368,5.2011494,1.9683908,1.3984674.967433,2.5239464,2.3232759,3.3764368,4.066092.8524904,1.743295,1.2787356,3.6594828,1.2787356,5.7471264,0,3.5823755-1.1398467,6.6139847-3.4195402,9.0948276-2.2796935,2.4813218-6.3984674,3.7212644-12.3563218,3.7212644h-10.3793103v18h-6ZM35.3520508,58.0695801h10.8492366c3.5877863,0,6.1354962-.6679389,7.6431298-2.0038168,1.5076336-1.3354008,2.2614504-3.2156489,2.2614504-5.639313,0-1.7557252-.4437023-3.2585878-1.3311069-4.5085878-.8874046-1.2495229-2.0562977-2.0753817-3.5066794-2.476145-.9351145-.2476145-2.6622137-.3721374-5.1812977-.3721374h-10.7347328v15Z"/>
        <path class="cls-1" d="M66.8081055,71.9401855l5.2148438-.8203125c.2929688,2.090332,1.1083984,3.6914062,2.4462891,4.8046875s3.2080078,1.6699219,5.6103516,1.6699219c2.421875,0,4.21875-.4931641,5.390625-1.4794922,1.171875-.9858398,1.7578125-2.1430664,1.7578125-3.4716797,0-1.190918-.5175781-2.128418-1.5527344-2.8125-.7226562-.46875-2.5195312-1.0644531-5.390625-1.7871094-3.8671875-.9765625-6.5478516-1.8208008-8.0419922-2.5341797-1.4941406-.7128906-2.6269531-1.6992188-3.3984375-2.9589844s-1.1572266-2.6513672-1.1572266-4.1748047c0-1.3867188.3173828-2.6704102.9521484-3.8525391.6347656-1.1816406,1.4990234-2.1630859,2.5927734-2.9443359.8203125-.6049805,1.9384766-1.1176758,3.3544922-1.5380859,1.4160156-.4199219,2.9345703-.6298828,4.5556641-.6298828,2.4414062,0,4.5849609.3515625,6.4306641,1.0546875s3.2080078,1.6552734,4.0869141,2.8564453,1.484375,2.8081055,1.8164062,4.8193359l-5.15625.703125c-.234375-1.6010742-.9130859-2.8515625-2.0361328-3.75-1.1230469-.8979492-2.7099609-1.3476562-4.7607422-1.3476562-2.421875,0-4.1503906.4003906-5.1855469,1.2011719-1.0351562.8012695-1.5527344,1.7387695-1.5527344,2.8125,0,.684082.2148438,1.2993164.6445312,1.8457031.4296875.5668945,1.1035156,1.0356445,2.0214844,1.40625.5273438.1953125,2.0800781.6445312,4.6582031,1.3476562,3.7304688.9960938,6.3330078,1.8120117,7.8076172,2.4462891,1.4746094.6347656,2.6318359,1.5576172,3.4716797,2.7685547.8398438,1.2114258,1.2597656,2.7148438,1.2597656,4.5117188,0,1.7578125-.5126953,3.4130859-1.5380859,4.9658203s-2.5048828,2.7539062-4.4384766,3.6035156-4.1210938,1.2744141-6.5625,1.2744141c-4.0429688,0-7.1240234-.8393555-9.2431641-2.5195312-2.1191406-1.6796875-3.4716797-4.1699219-4.0576172-7.4707031Z"/>
      </g>
    </g>
  </g>
</svg>