<?xml version="1.0" encoding="UTF-8"?>
<svg id="_レイヤー_2" data-name="レイヤー 2" xmlns="http://www.w3.org/2000/svg" viewBox="0 0 120 120">
  <defs>
    <style>
      .cls-1 {
        fill: #fff;
      }

      .cls-2 {
        opacity: .3;
      }
    </style>
  </defs>
  <g id="_レイヤー_2-2" data-name="レイヤー 2">
    <g id="Xd">
      <g class="cls-2">
        <rect class="cls-1" width="120" height="120" rx="24" ry="24"/>
      </g>
      <g>
        <path class="cls-1" d="M23.4849432,81.0695801l16.6309686-22.4092769-14.6657572-20.5907231h6.7755798l7.8021828,11.0286494c1.6230105,2.2878581,2.775739,4.047749,3.4611187,5.2796726.9571851-1.5643474,2.0923147-3.1971351,3.4024557-4.8983629l8.6527967-11.4099591h6.1889495l-15.1057299,20.2680764,16.2789905,22.7319236h-7.0395634l-10.8233288-15.340382c-.6061846-.8799454-1.2319236-1.8376194-1.8772169-2.8744884-.9581628,1.5648363-1.6425648,2.6398363-2.053206,3.2264666l-10.7939973,14.9884038h-6.8342428Z"/>
        <path class="cls-1" d="M86.5150568,81.0695801v-3.7680664s-3.984375,4.6289062-7.8115234,4.6289062c-2.4804688,0-4.7607422-.684082-6.8408203-2.0507812s-3.6914062-3.2763672-4.8339844-5.7275391c-1.1425781-2.4506836-1.7138672-5.2685547-1.7138672-8.4521484,0-3.1054688.5166016-5.9223633,1.5527344-8.4521484,1.0351562-2.5292969,2.5878906-4.4677734,4.6582031-5.8154297,2.0693359-1.3476562,4.3837891-2.0214844,6.9433594-2.0214844,1.875,0,3.5449219.3955078,5.0097656,1.1865234s2.6552734,1.8212891,4.0361328,3.0908203v-15.6186523h5v43h-6ZM70.7347833,65.6999512c0,3.984375.8388672,6.9628906,2.5195312,8.9355469,1.6796875,1.9731445,3.6621094,2.9589844,5.9472656,2.9589844,2.3037109,0,4.2626953-.9418945,5.8740234-2.8271484,1.6113281-1.8847656,2.4169922-4.7607422,2.4169922-8.6279297,0-4.2578125-.8203125-7.3828125-2.4609375-9.375s-3.6621094-2.9882812-6.0644531-2.9882812c-2.34375,0-4.3027344.9570312-5.8740234,2.8710938-1.5722656,1.9145508-2.3583984,4.9321289-2.3583984,9.0527344Z"/>
      </g>
    </g>
  </g>
</svg>